<?xml version="1.0" encoding="UTF-8" standalone="no"?>
<!-- Created with Inkscape (http://www.inkscape.org/) -->
<svg
   xmlns:svg="http://www.w3.org/2000/svg"
   xmlns="http://www.w3.org/2000/svg"
   xmlns:xlink="http://www.w3.org/1999/xlink"
   version="1.0"
   width="464.4744"
   height="308.85999"
   id="svg2">
  <defs
     id="defs4">
    <linearGradient
       id="linearGradient14859">
      <stop
         style="stop-color:#562956;stop-opacity:0"
         offset="0"
         id="stop14861" />
      <stop
         style="stop-color:#5f5200;stop-opacity:1"
         offset="1"
         id="stop14863" />
    </linearGradient>
    <marker
       refX="0"
       refY="0"
       orient="auto"
       style="overflow:visible"
       id="TriangleOutM">
      <path
         d="M 5.77,0 L -2.88,5 L -2.88,-5 L 5.77,0 z "
         transform="scale(0.4,0.4)"
         style="fill-rule:evenodd;stroke:#000000;stroke-width:1pt;marker-start:none"
         id="path8802" />
    </marker>
    <marker
       refX="0"
       refY="0"
       orient="auto"
       style="overflow:visible"
       id="TriangleOutL">
      <path
         d="M 5.77,0 L -2.88,5 L -2.88,-5 L 5.77,0 z "
         transform="scale(0.8,0.8)"
         style="fill-rule:evenodd;stroke:#000000;stroke-width:1pt;marker-start:none"
         id="path8805" />
    </marker>
    <linearGradient
       id="linearGradient3838">
      <stop
         style="stop-color:#800700;stop-opacity:1"
         offset="0"
         id="stop3840" />
      <stop
         style="stop-color:#ff7e61;stop-opacity:1"
         offset="1"
         id="stop3842" />
    </linearGradient>
    <linearGradient
       id="linearGradient3830">
      <stop
         style="stop-color:#800080;stop-opacity:1"
         offset="0"
         id="stop3832" />
      <stop
         style="stop-color:#ffb0ff;stop-opacity:1"
         offset="1"
         id="stop3834" />
    </linearGradient>
    <linearGradient
       x1="383.74786"
       y1="144.23863"
       x2="305.59921"
       y2="145.75476"
       id="linearGradient2430"
       xlink:href="#linearGradient3838"
       gradientUnits="userSpaceOnUse"
       gradientTransform="matrix(0.5923132,0,0,1.0028017,72.44368,-10.26935)" />
    <linearGradient
       x1="395.08777"
       y1="130.36316"
       x2="232.91177"
       y2="130.36316"
       id="linearGradient2433"
       xlink:href="#linearGradient3838"
       gradientUnits="userSpaceOnUse"
       gradientTransform="matrix(0.5923133,0,0,1.0028016,72.443716,-10.269348)" />
    <linearGradient
       x1="318.58694"
       y1="115.19135"
       x2="248.04071"
       y2="115.95154"
       id="linearGradient2436"
       xlink:href="#linearGradient3838"
       gradientUnits="userSpaceOnUse"
       gradientTransform="translate(-11.016845,-4.760284)" />
    <linearGradient
       x1="49.847565"
       y1="15.227224"
       x2="43.118122"
       y2="209.34677"
       id="linearGradient2439"
       xlink:href="#linearGradient3838"
       gradientUnits="userSpaceOnUse"
       gradientTransform="matrix(0.5923133,0,0,1.0028016,72.443739,-10.269328)" />
    <linearGradient
       x1="133.41251"
       y1="120.44049"
       x2="609.8678"
       y2="120.44049"
       id="linearGradient2442"
       xlink:href="#linearGradient14859"
       gradientUnits="userSpaceOnUse"
       gradientTransform="translate(-11.016842,-4.760284)" />
    <linearGradient
       x1="347.14285"
       y1="363.79074"
       x2="566.51929"
       y2="427.54584"
       id="linearGradient2456"
       xlink:href="#linearGradient3830"
       gradientUnits="userSpaceOnUse"
       gradientTransform="matrix(1,0,0,-1,-11.016845,247.23972)" />
    <linearGradient
       x1="366.14301"
       y1="425.41003"
       x2="561.97357"
       y2="424.51538"
       id="linearGradient2459"
       xlink:href="#linearGradient14859"
       gradientUnits="userSpaceOnUse"
       gradientTransform="translate(-11.016842,-4.760284)" />
  </defs>
  <path
     d="M 100.29565,105.5827 C 95.295405,105.5827 91.264405,111.62663 91.264405,119.1452 L 91.264405,247.7077 C 91.264405,255.22627 95.295405,261.30144 100.29565,261.30145 L 458.82691,261.30145 L 452.5144,227.23895 L 463.10816,178.2077 L 451.10816,135.2702 L 463.5144,105.5827 L 100.29565,105.5827 z "
     style="color:#000000;fill:url(#linearGradient2459);fill-opacity:1;fill-rule:nonzero;stroke:none;stroke-width:1.91999996;stroke-linecap:butt;stroke-linejoin:miter;marker:none;marker-start:none;marker-mid:none;marker-end:none;stroke-miterlimit:4;stroke-dasharray:none;stroke-dashoffset:0;stroke-opacity:1;visibility:visible;display:inline;overflow:visible;enable-background:accumulate"
     id="path2266" />
  <path
     d="M 100.29565,105.5827 C 95.295405,105.5827 91.264405,111.62663 91.264405,119.1452 L 91.264405,247.7077 C 91.264405,255.22627 95.295405,261.30144 100.29565,261.30145 L 458.82691,261.30145 L 452.5144,227.23895 L 463.10816,178.2077 L 451.10816,135.2702 L 463.5144,105.5827 L 100.29565,105.5827 z "
     style="color:#000000;fill:url(#linearGradient2456);fill-opacity:1;fill-rule:nonzero;stroke:none;stroke-width:1.91999996;stroke-linecap:butt;stroke-linejoin:miter;marker:none;marker-start:none;marker-mid:none;marker-end:none;stroke-miterlimit:4;stroke-dasharray:none;stroke-dashoffset:0;stroke-opacity:1;visibility:visible;display:inline;overflow:visible;enable-background:accumulate"
     id="rect2168" />
  <path
     d="M 463.5144,105.5827 L 100.29565,105.5827 C 95.295405,105.5827 91.264405,111.62663 91.264405,119.1452 L 91.264405,247.7077 C 91.264405,255.22627 95.295405,261.30144 100.29565,261.30145 L 458.82691,261.30145"
     style="color:#000000;fill:none;fill-opacity:1;fill-rule:nonzero;stroke:#000000;stroke-width:1.91999996;stroke-linecap:butt;stroke-linejoin:miter;marker:none;marker-start:none;marker-mid:none;marker-end:none;stroke-miterlimit:4;stroke-dasharray:none;stroke-dashoffset:0;stroke-opacity:1;visibility:visible;display:inline;overflow:visible;enable-background:accumulate"
     id="path3186" />
  <g
     transform="translate(-11.016845,57.676452)"
     id="g3210">
    <path
       d="M 270.9375,21.6875 L 270.9375,22.375 C 290.7656,22.375001 292.1875,22.375 292.1875,22.375 L 292.1875,21.6875 C 292.1875,21.6875 290.7656,21.687501 270.9375,21.6875 z "
       style="fill:#000000;fill-opacity:1;fill-rule:evenodd;stroke:none;stroke-width:0.69999999;stroke-linecap:butt;stroke-linejoin:miter;stroke-miterlimit:4;stroke-dasharray:none;stroke-opacity:1"
       id="path8910" />
    <g
       transform="matrix(0.7,0,0,0.7,270.93121,22.031327)"
       id="g3216">
      <path
         d="M 0,0 L 2,0"
         style="fill:none;stroke:#ffffff;stroke-width:1.14999998;stroke-linecap:square"
         id="path3218" />
      <path
         d="M 0,0 L 13,4 L 9,0 L 13,-4 L 0,0 z "
         style="fill:#000000;fill-rule:evenodd;stroke:none"
         id="path3220" />
      <path
         d="M 0,-4 L 0,40"
         style="fill:none;stroke:#000000;stroke-width:1;stroke-linecap:square"
         id="path3222" />
    </g>
    <g
       transform="matrix(0.7,0,0,0.7,292.18466,22.031327)"
       id="g3224">
      <path
         d="M 0,0 L -2,0"
         style="fill:none;stroke:#ffffff;stroke-width:1.14999998;stroke-linecap:square"
         id="path3226" />
      <path
         d="M 0,0 L -13,4 L -9,0 L -13,-4 L 0,0 z "
         style="fill:#000000;fill-rule:evenodd;stroke:none"
         id="path3228" />
      <path
         d="M 0,-4 L 0,40"
         style="fill:none;stroke:#000000;stroke-width:1;stroke-linecap:square"
         id="path3230" />
    </g>
  </g>
  <path
     d="M 100.29565,105.5827 C 95.295405,105.5827 91.264405,111.62663 91.264405,119.1452 L 91.264405,247.7077 C 91.264405,255.22627 95.295405,261.30144 100.29565,261.30145 L 458.82691,261.30145 L 452.5144,227.23895 L 463.10816,178.2077 L 451.10816,135.2702 L 463.5144,105.5827 L 100.29565,105.5827 z "
     style="color:#000000;fill:url(#linearGradient2442);fill-opacity:1;fill-rule:nonzero;stroke:none;stroke-width:1.91999996;stroke-linecap:butt;stroke-linejoin:miter;marker:none;marker-start:none;marker-mid:none;marker-end:none;stroke-miterlimit:4;stroke-dasharray:none;stroke-dashoffset:0;stroke-opacity:1;visibility:visible;display:inline;overflow:visible;enable-background:accumulate"
     id="path2256" />
  <path
     d="M 113.47232,183.17893 C 113.47232,226.50616 106.53759,261.62982 97.983173,261.62982 C 89.428756,261.62982 82.494032,226.50616 82.494032,183.17893 C 82.494032,139.85171 89.428756,104.72805 97.983173,104.72805 C 106.53759,104.72805 113.47232,139.85171 113.47232,183.17893 z "
     style="fill:url(#linearGradient2439);fill-opacity:1;fill-rule:nonzero;stroke:#000000;stroke-width:0.94172531;stroke-miterlimit:4;stroke-dasharray:none;stroke-dashoffset:0;stroke-opacity:1"
     id="path3828" />
  <rect
     width="35.709984"
     height="155.35289"
     rx="7.4999957"
     ry="23.571438"
     x="252.55676"
     y="105.75507"
     style="fill:url(#linearGradient2436);fill-opacity:1;fill-rule:nonzero;stroke:none;stroke-width:1.92428696;stroke-miterlimit:4;stroke-dasharray:none;stroke-dashoffset:0;stroke-opacity:1"
     id="rect4823" />
  <path
     d="M 275.47314,182.89576 C 275.47314,226.06706 268.53805,261.06431 259.98317,261.06431 C 251.42829,261.06431 244.49319,226.06706 244.49319,182.89576 C 244.49319,139.72447 251.42829,104.72722 259.98317,104.72722 C 268.53805,104.72722 275.47314,139.72447 275.47314,182.89576 z "
     style="fill:url(#linearGradient2433);fill-opacity:1;fill-rule:nonzero;stroke:#000000;stroke-width:0.94005454;stroke-miterlimit:4;stroke-dasharray:none;stroke-dashoffset:0;stroke-opacity:1"
     id="path4815" />
  <path
     d="M 282.47179,106.11983 C 292.45129,110.75115 299.8111,146.44031 299.244,187.45157 C 298.67691,228.46284 290.38017,260.53066 280.33663,260.53069"
     style="fill:url(#linearGradient2430);fill-opacity:1;fill-rule:nonzero;stroke:#000000;stroke-width:0.93587184;stroke-miterlimit:4;stroke-dasharray:none;stroke-dashoffset:0;stroke-opacity:1"
     id="path4825" />
  <g
     transform="translate(-11.016845,57.676452)"
     id="g3275">
    <path
       d="M 38.21875,120.84375 L 38.21875,123.0625 L 77.625,123.0625 L 77.625,120.84375 L 38.21875,120.84375 z "
       style="fill:#000000;fill-opacity:1;fill-rule:evenodd;stroke:none;stroke-width:2.20000005;stroke-linecap:butt;stroke-linejoin:miter;stroke-miterlimit:4;stroke-dasharray:none;stroke-opacity:1"
       id="path7741" />
    <path
       d="M 87.779611,121.9552 L 72.555611,130.7552 L 72.555611,113.1552 L 87.779611,121.9552 z "
       style="fill-rule:evenodd;stroke:#000000;stroke-width:1.76000004pt;marker-start:none"
       id="path3281" />
  </g>
  <path
     d="M 268.23028,64.803919 L 268.23028,62.436732 L 268.94904,62.436732 L 268.94904,68.51486 L 268.23028,68.51486 L 268.23028,67.858607 C 268.07924,68.11902 267.88784,68.31303 267.65607,68.44064 C 267.4269,68.56564 267.15086,68.62814 266.82795,68.62814 C 266.29929,68.62814 265.8683,68.4172 265.53498,67.995325 C 265.20424,67.573452 265.03888,67.018765 265.03888,66.331263 C 265.03888,65.643766 265.20424,65.089079 265.53498,64.667201 C 265.8683,64.24533 266.29929,64.034393 266.82795,64.034388 C 267.15086,64.034393 267.4269,64.098195 267.65607,64.225794 C 267.88784,64.350799 268.07924,64.543507 268.23028,64.803919 M 265.78106,66.331263 C 265.78106,66.859911 265.88914,67.275275 266.10528,67.577357 C 266.32404,67.876836 266.62352,68.02658 267.00372,68.02657 C 267.38392,68.02658 267.6834,67.876836 267.90216,67.577357 C 268.1209,67.275275 268.23028,66.859911 268.23028,66.331263 C 268.23028,65.80262 268.1209,65.388558 267.90216,65.089076 C 267.6834,64.786996 267.38392,64.635955 267.00372,64.635951 C 266.62352,64.635955 266.32404,64.786996 266.10528,65.089076 C 265.88914,65.388558 265.78106,65.80262 265.78106,66.331263 M 274.06622,64.139857 L 272.48419,66.268763 L 274.14826,68.51486 L 273.3006,68.51486 L 272.02717,66.796107 L 270.75372,68.51486 L 269.90606,68.51486 L 271.60528,66.225794 L 270.0506,64.139857 L 270.89825,64.139857 L 272.05842,65.698451 L 273.21856,64.139857 L 274.06622,64.139857"
     style="font-size:8px;font-style:normal;font-weight:normal;fill:#000000;fill-opacity:1;stroke:none;stroke-width:1px;stroke-linecap:butt;stroke-linejoin:miter;stroke-opacity:1;font-family:Bitstream Vera Sans"
     id="text10897" />
  <path
     d="M 260.05178,177.61135 L 113.07458,177.61135"
     style="fill:none;fill-opacity:0.75;fill-rule:evenodd;stroke:#000000;stroke-width:1;stroke-linecap:butt;stroke-linejoin:miter;stroke-miterlimit:4;stroke-dasharray:1, 12;stroke-dashoffset:0;stroke-opacity:1"
     id="path10901" />
  <path
     d="M 262.97845,153.72542 C 262.85736,153.65512 262.72454,153.60433 262.58002,153.57308 C 262.43939,153.53793 262.28314,153.52035 262.11127,153.52034 C 261.50189,153.52035 261.03314,153.71957 260.70502,154.118 C 260.3808,154.51254 260.21869,155.0809 260.21869,155.82308 L 260.21869,159.28011 L 259.1347,159.28011 L 259.1347,152.71761 L 260.21869,152.71761 L 260.21869,153.73714 C 260.44525,153.33871 260.74017,153.04379 261.10345,152.85238 C 261.46673,152.65707 261.90814,152.55941 262.42767,152.55941 C 262.50189,152.55941 262.58392,152.56527 262.67377,152.57698 C 262.76361,152.5848 262.86321,152.59848 262.97259,152.618 L 262.97845,153.72542"
     id="flowRoot12849" />
  <path
     d="M 1.511718,155.25514 L 1.511718,159.7903 L 2.464843,159.7903 C 3.269528,159.7903 3.858069,159.608 4.230468,159.24342 C 4.605464,158.87884 4.792964,158.30332 4.792968,157.51686 C 4.792964,156.73561 4.605464,156.164 4.230468,155.80202 C 3.858069,155.43744 3.269528,155.25515 2.464843,155.25514 L 1.511718,155.25514 M 0.722656,154.6067 L 2.34375,154.6067 C 3.473955,154.60671 4.303381,154.84239 4.832031,155.31373 C 5.360671,155.78249 5.624994,156.51686 5.625,157.51686 C 5.624994,158.52207 5.359369,159.26035 4.828125,159.7317 C 4.29687,160.20306 3.468746,160.43873 2.34375,160.43873 L 0.722656,160.43873 L 0.722656,154.6067 M 6.847656,156.06373 L 7.566406,156.06373 L 7.566406,160.43873 L 6.847656,160.43873 L 6.847656,156.06373 M 6.847656,154.36061 L 7.566406,154.36061 L 7.566406,155.27077 L 6.847656,155.27077 L 6.847656,154.36061 M 11.601562,156.73561 C 11.52083,156.68874 11.432288,156.65488 11.335937,156.63405 C 11.242184,156.61061 11.138018,156.59889 11.023437,156.59889 C 10.617185,156.59889 10.304685,156.73171 10.085937,156.99733 C 9.86979,157.26035 9.761717,157.63926 9.761718,158.13405 L 9.761718,160.43873 L 9.039062,160.43873 L 9.039062,156.06373 L 9.761718,156.06373 L 9.761718,156.74342 C 9.912759,156.4778 10.109373,156.28119 10.351562,156.15358 C 10.593747,156.02337 10.888018,155.95827 11.234375,155.95827 C 11.283851,155.95827 11.338538,155.96218 11.398437,155.96998 C 11.45833,155.9752 11.524736,155.98431 11.597656,155.99733 L 11.601562,156.73561 M 16.105468,158.07155 L 16.105468,158.42311 L 12.800781,158.42311 C 12.83203,158.9179 12.980467,159.29551 13.246093,159.55592 C 13.514321,159.81373 13.886716,159.94264 14.363281,159.94264 C 14.63932,159.94264 14.906246,159.90879 15.164062,159.84108 C 15.424475,159.77337 15.682287,159.67181 15.9375,159.53639 L 15.9375,160.21608 C 15.679683,160.32545 15.415361,160.40879 15.144531,160.46608 C 14.873694,160.52337 14.598955,160.55201 14.320312,160.55201 C 13.622394,160.55201 13.069009,160.34889 12.660156,159.94264 C 12.253905,159.53639 12.050781,158.98691 12.050781,158.2942 C 12.050781,157.57806 12.243489,157.01035 12.628906,156.59108 C 13.016925,156.16921 13.53906,155.95827 14.195312,155.95827 C 14.783851,155.95827 15.248694,156.14837 15.589843,156.52858 C 15.933589,156.90619 16.105464,157.42051 16.105468,158.07155 M 15.386718,157.86061 C 15.381506,157.46738 15.270829,157.15358 15.054687,156.9192 C 14.841142,156.68483 14.557288,156.56764 14.203125,156.56764 C 13.802081,156.56764 13.480467,156.68093 13.238281,156.90748 C 12.998696,157.13405 12.860676,157.45306 12.824218,157.86451 L 15.386718,157.86061 M 20.433593,156.2317 L 20.433593,156.90358 C 20.230465,156.7916 20.026038,156.70827 19.820312,156.65358 C 19.617184,156.59629 19.411455,156.56764 19.203125,156.56764 C 18.736977,156.56764 18.374998,156.71608 18.117187,157.01295 C 17.859373,157.30723 17.730467,157.72129 17.730468,158.25514 C 17.730467,158.789 17.859373,159.20436 18.117187,159.50123 C 18.374998,159.7955 18.736977,159.94264 19.203125,159.94264 C 19.411455,159.94264 19.617184,159.9153 19.820312,159.86061 C 20.026038,159.80332 20.230465,159.71868 20.433593,159.6067 L 20.433593,160.27076 C 20.233069,160.36451 20.024736,160.43483 19.808593,160.4817 C 19.595049,160.52858 19.367184,160.55201 19.125,160.55201 C 18.466144,160.55201 17.942707,160.34498 17.554687,159.93092 C 17.166666,159.51686 16.972656,158.95827 16.972656,158.25514 C 16.972656,157.5416 17.167968,156.9804 17.558593,156.57155 C 17.951821,156.1627 18.489581,155.95827 19.171875,155.95827 C 19.393226,155.95827 19.609372,155.98171 19.820312,156.02858 C 20.031246,156.07285 20.235673,156.14056 20.433593,156.2317 M 22.402343,154.82155 L 22.402343,156.06373 L 23.882812,156.06373 L 23.882812,156.62233 L 22.402343,156.62233 L 22.402343,158.99733 C 22.402342,159.3541 22.450519,159.58327 22.546875,159.68483 C 22.645831,159.78639 22.84505,159.83717 23.144531,159.83717 L 23.882812,159.83717 L 23.882812,160.43873 L 23.144531,160.43873 C 22.589842,160.43873 22.20703,160.33587 21.996093,160.13014 C 21.785155,159.92181 21.679687,159.5442 21.679687,158.99733 L 21.679687,156.62233 L 21.152343,156.62233 L 21.152343,156.06373 L 21.679687,156.06373 L 21.679687,154.82155 L 22.402343,154.82155 M 24.832031,156.06373 L 25.550781,156.06373 L 25.550781,160.43873 L 24.832031,160.43873 L 24.832031,156.06373 M 24.832031,154.36061 L 25.550781,154.36061 L 25.550781,155.27077 L 24.832031,155.27077 L 24.832031,154.36061 M 28.746093,156.56764 C 28.360675,156.56764 28.055988,156.71869 27.832031,157.02077 C 27.608071,157.32025 27.496092,157.7317 27.496093,158.25514 C 27.496092,158.77858 27.606769,159.19134 27.828125,159.49342 C 28.052081,159.7929 28.358071,159.94264 28.746093,159.94264 C 29.128903,159.94264 29.432288,159.7916 29.65625,159.48951 C 29.880204,159.18743 29.992184,158.77597 29.992187,158.25514 C 29.992184,157.73691 29.880204,157.32676 29.65625,157.02467 C 29.432288,156.71999 29.128903,156.56764 28.746093,156.56764 M 28.746093,155.95827 C 29.37109,155.95827 29.861975,156.1614 30.21875,156.56764 C 30.575516,156.97389 30.753902,157.53639 30.753906,158.25514 C 30.753902,158.97129 30.575516,159.53379 30.21875,159.94264 C 29.861975,160.34889 29.37109,160.55201 28.746093,160.55201 C 28.118488,160.55201 27.626301,160.34889 27.269531,159.94264 C 26.915364,159.53379 26.738281,158.97129 26.738281,158.25514 C 26.738281,157.53639 26.915364,156.97389 27.269531,156.56764 C 27.626301,156.1614 28.118488,155.95827 28.746093,155.95827 M 35.578125,157.79811 L 35.578125,160.43873 L 34.859375,160.43873 L 34.859375,157.82155 C 34.859371,157.40749 34.778642,157.09759 34.617187,156.89186 C 34.455726,156.68613 34.213538,156.58327 33.890625,156.58327 C 33.502602,156.58327 33.196612,156.70697 32.972656,156.95436 C 32.748696,157.20176 32.636717,157.539 32.636718,157.96608 L 32.636718,160.43873 L 31.914062,160.43873 L 31.914062,156.06373 L 32.636718,156.06373 L 32.636718,156.74342 C 32.808592,156.48041 33.010415,156.28379 33.242187,156.15358 C 33.47656,156.02337 33.746091,155.95827 34.050781,155.95827 C 34.553382,155.95827 34.93359,156.11452 35.191406,156.42702 C 35.449214,156.73692 35.57812,157.19395 35.578125,157.79811 M 41.261718,156.56764 C 40.8763,156.56764 40.571613,156.71869 40.347656,157.02077 C 40.123696,157.32025 40.011717,157.7317 40.011718,158.25514 C 40.011717,158.77858 40.122394,159.19134 40.34375,159.49342 C 40.567706,159.7929 40.873696,159.94264 41.261718,159.94264 C 41.644528,159.94264 41.947913,159.7916 42.171875,159.48951 C 42.395829,159.18743 42.507809,158.77597 42.507812,158.25514 C 42.507809,157.73691 42.395829,157.32676 42.171875,157.02467 C 41.947913,156.71999 41.644528,156.56764 41.261718,156.56764 M 41.261718,155.95827 C 41.886715,155.95827 42.3776,156.1614 42.734375,156.56764 C 43.091141,156.97389 43.269527,157.53639 43.269531,158.25514 C 43.269527,158.97129 43.091141,159.53379 42.734375,159.94264 C 42.3776,160.34889 41.886715,160.55201 41.261718,160.55201 C 40.634113,160.55201 40.141926,160.34889 39.785156,159.94264 C 39.430989,159.53379 39.253906,158.97129 39.253906,158.25514 C 39.253906,157.53639 39.430989,156.97389 39.785156,156.56764 C 40.141926,156.1614 40.634113,155.95827 41.261718,155.95827 M 46.671875,154.36061 L 46.671875,154.95827 L 45.984375,154.95827 C 45.72656,154.95827 45.546873,155.01035 45.445312,155.11452 C 45.346352,155.21869 45.296873,155.40619 45.296875,155.67702 L 45.296875,156.06373 L 46.480468,156.06373 L 46.480468,156.62233 L 45.296875,156.62233 L 45.296875,160.43873 L 44.574218,160.43873 L 44.574218,156.62233 L 43.886718,156.62233 L 43.886718,156.06373 L 44.574218,156.06373 L 44.574218,155.75905 C 44.574218,155.27207 44.687499,154.91791 44.914062,154.69655 C 45.140623,154.47259 45.499998,154.36062 45.992187,154.36061 L 46.671875,154.36061 M 2.671875,165.38405 L 1.601562,168.28639 L 3.746093,168.28639 L 2.671875,165.38405 M 2.226562,164.6067 L 3.121093,164.6067 L 5.34375,170.43873 L 4.523437,170.43873 L 3.992187,168.94264 L 1.363281,168.94264 L 0.832031,170.43873 L 0,170.43873 L 2.226562,164.6067 M 9.796875,166.06373 L 8.214843,168.19264 L 9.878906,170.43873 L 9.03125,170.43873 L 7.757812,168.71998 L 6.484375,170.43873 L 5.636718,170.43873 L 7.335937,168.14967 L 5.78125,166.06373 L 6.628906,166.06373 L 7.789062,167.62233 L 8.949218,166.06373 L 9.796875,166.06373 M 10.894531,166.06373 L 11.613281,166.06373 L 11.613281,170.43873 L 10.894531,170.43873 L 10.894531,166.06373 M 10.894531,164.36061 L 11.613281,164.36061 L 11.613281,165.27076 L 10.894531,165.27076 L 10.894531,164.36061 M 15.101562,168.23951 C 14.520831,168.23952 14.118488,168.30592 13.894531,168.43873 C 13.670571,168.57155 13.558592,168.79811 13.558593,169.11842 C 13.558592,169.37363 13.641926,169.57676 13.808593,169.7278 C 13.977863,169.87623 14.207029,169.95045 14.496093,169.95045 C 14.894528,169.95045 15.213539,169.80983 15.453125,169.52858 C 15.695309,169.24472 15.816403,168.86842 15.816406,168.39967 L 15.816406,168.23951 L 15.101562,168.23951 M 16.535156,167.94264 L 16.535156,170.43873 L 15.816406,170.43873 L 15.816406,169.77467 C 15.65234,170.0403 15.447913,170.23691 15.203125,170.36451 C 14.95833,170.48951 14.658852,170.55201 14.304687,170.55201 C 13.856769,170.55201 13.499999,170.42701 13.234375,170.17701 C 12.971353,169.92441 12.839843,169.58717 12.839843,169.1653 C 12.839843,168.67311 13.003905,168.30202 13.332031,168.05201 C 13.662759,167.80202 14.154946,167.67702 14.808593,167.67701 L 15.816406,167.67701 L 15.816406,167.6067 C 15.816403,167.27598 15.707028,167.02077 15.488281,166.84108 C 15.272132,166.65879 14.967445,166.56764 14.574218,166.56764 C 14.324217,166.56764 14.080727,166.59759 13.84375,166.65748 C 13.606769,166.71738 13.378905,166.80723 13.160156,166.92701 L 13.160156,166.26295 C 13.423176,166.16139 13.678384,166.08587 13.925781,166.03639 C 14.173175,165.98431 14.41406,165.95827 14.648437,165.95826 C 15.281247,165.95827 15.753903,166.12233 16.066406,166.45045 C 16.378902,166.77858 16.535152,167.27598 16.535156,167.94264 M 18.019531,164.36061 L 18.738281,164.36061 L 18.738281,170.43873 L 18.019531,170.43873 L 18.019531,164.36061 M 22.816406,164.6067 L 26.167968,164.6067 L 26.167968,165.27076 L 23.605468,165.27076 L 23.605468,166.98951 L 25.917968,166.98951 L 25.917968,167.65358 L 23.605468,167.65358 L 23.605468,170.43873 L 22.816406,170.43873 L 22.816406,164.6067 M 27.394531,164.36061 L 28.113281,164.36061 L 28.113281,170.43873 L 27.394531,170.43873 L 27.394531,164.36061 M 31.308593,166.56764 C 30.923175,166.56764 30.618488,166.71868 30.394531,167.02076 C 30.170571,167.32025 30.058592,167.7317 30.058593,168.25514 C 30.058592,168.77858 30.169269,169.19134 30.390625,169.49342 C 30.614581,169.7929 30.920571,169.94264 31.308593,169.94264 C 31.691403,169.94264 31.994788,169.7916 32.21875,169.48951 C 32.442704,169.18743 32.554684,168.77597 32.554687,168.25514 C 32.554684,167.73691 32.442704,167.32676 32.21875,167.02467 C 31.994788,166.71999 31.691403,166.56764 31.308593,166.56764 M 31.308593,165.95826 C 31.93359,165.95827 32.424475,166.16139 32.78125,166.56764 C 33.138016,166.97389 33.316402,167.53639 33.316406,168.25514 C 33.316402,168.97129 33.138016,169.53379 32.78125,169.94264 C 32.424475,170.34889 31.93359,170.55201 31.308593,170.55201 C 30.680988,170.55201 30.188801,170.34889 29.832031,169.94264 C 29.477864,169.53379 29.300781,168.97129 29.300781,168.25514 C 29.300781,167.53639 29.477864,166.97389 29.832031,166.56764 C 30.188801,166.16139 30.680988,165.95827 31.308593,165.95826 M 34.085937,166.06373 L 34.804687,166.06373 L 35.703125,169.4778 L 36.597656,166.06373 L 37.445312,166.06373 L 38.34375,169.4778 L 39.238281,166.06373 L 39.957031,166.06373 L 38.8125,170.43873 L 37.964843,170.43873 L 37.023437,166.8528 L 36.078125,170.43873 L 35.230468,170.43873 L 34.085937,166.06373"
     style="font-size:8px;font-style:normal;font-weight:normal;fill:#000000;fill-opacity:1;stroke:none;stroke-width:1px;stroke-linecap:butt;stroke-linejoin:miter;stroke-opacity:1;font-family:Bitstream Vera Sans"
     id="text12857" />
  <path
     d="M 249.44099,182.9121 C 249.44099,225.94434 242.50556,260.82886 233.95026,260.82886 C 225.39497,260.82886 218.45954,225.94434 218.45954,182.9121 C 218.45954,139.87987 225.39497,104.99535 233.95026,104.99535 C 242.50556,104.99535 249.44099,139.87987 249.44099,182.9121 z "
     style="fill:none;fill-opacity:1;fill-rule:nonzero;stroke:#000000;stroke-width:0.93856192;stroke-miterlimit:4;stroke-dasharray:3.75424757, 0.9385619;stroke-dashoffset:0;stroke-opacity:1"
     id="path12863" />
  <g
     transform="translate(-11.016845,57.676452)"
     id="g3267">
    <path
       d="M 242.8125,181.84375 L 220.0625,227.28125 L 220.96875,227.75 L 243.6875,182.28125 L 242.8125,181.84375 z "
       style="fill:#000000;fill-opacity:1;fill-rule:evenodd;stroke:none;stroke-width:1px;stroke-linecap:butt;stroke-linejoin:miter;stroke-opacity:1"
       id="path13836" />
    <path
       d="M 244.28099,179.99494 L 244.52248,183.98409 L 240.94478,182.19523 L 244.28099,179.99494 z "
       style="fill-rule:evenodd;stroke:#000000;stroke-width:0.4pt;marker-start:none"
       id="path3273" />
  </g>
  <path
     d="M 170.92457,289.36305 L 171.98707,289.36305 L 174.573,294.24196 L 174.573,289.36305 L 175.33863,289.36305 L 175.33863,295.19508 L 174.27613,295.19508 L 171.69019,290.31618 L 171.69019,295.19508 L 170.92457,295.19508 L 170.92457,289.36305 M 180.61988,292.8279 L 180.61988,293.17946 L 177.31519,293.17946 C 177.34644,293.67425 177.49488,294.05186 177.7605,294.31227 C 178.02873,294.57008 178.40113,294.69899 178.87769,294.69899 C 179.15373,294.69899 179.42066,294.66514 179.67847,294.59743 C 179.93889,294.52972 180.1967,294.42816 180.45191,294.29274 L 180.45191,294.97243 C 180.19409,295.0818 179.92977,295.16514 179.65894,295.22243 C 179.3881,295.27972 179.11337,295.30836 178.83472,295.30836 C 178.1368,295.30836 177.58342,295.10524 177.17457,294.69899 C 176.76832,294.29274 176.56519,293.74326 176.56519,293.05055 C 176.56519,292.33441 176.7579,291.7667 177.14332,291.34743 C 177.53134,290.92556 178.05347,290.71462 178.70972,290.71461 C 179.29826,290.71462 179.7631,290.90472 180.10425,291.28493 C 180.448,291.66253 180.61987,292.17686 180.61988,292.8279 M 179.90113,292.61696 C 179.89592,292.22373 179.78524,291.90993 179.5691,291.67555 C 179.35555,291.44118 179.0717,291.32399 178.71754,291.32399 C 178.31649,291.32399 177.99488,291.43727 177.75269,291.66383 C 177.51311,291.8904 177.37509,292.20941 177.33863,292.62086 L 179.90113,292.61696 M 185.43628,290.82008 L 183.85425,292.94899 L 185.51832,295.19508 L 184.67066,295.19508 L 183.39722,293.47633 L 182.12378,295.19508 L 181.27613,295.19508 L 182.97535,292.90602 L 181.42066,290.82008 L 182.26832,290.82008 L 183.42847,292.37868 L 184.58863,290.82008 L 185.43628,290.82008 M 187.24488,289.5779 L 187.24488,290.82008 L 188.72535,290.82008 L 188.72535,291.37868 L 187.24488,291.37868 L 187.24488,293.75368 C 187.24488,294.11045 187.29305,294.33962 187.38941,294.44118 C 187.48837,294.54274 187.68759,294.59352 187.98707,294.59352 L 188.72535,294.59352 L 188.72535,295.19508 L 187.98707,295.19508 C 187.43238,295.19508 187.04956,295.09222 186.83863,294.88649 C 186.62769,294.67816 186.52222,294.30055 186.52222,293.75368 L 186.52222,291.37868 L 185.99488,291.37868 L 185.99488,290.82008 L 186.52222,290.82008 L 186.52222,289.5779 L 187.24488,289.5779 M 193.7566,295.19508 L 191.53004,289.36305 L 192.35425,289.36305 L 194.20191,294.27321 L 196.05347,289.36305 L 196.87378,289.36305 L 194.65113,295.19508 L 193.7566,295.19508 M 199.3855,291.32399 C 199.00009,291.32399 198.6954,291.47503 198.47144,291.77711 C 198.24748,292.0766 198.1355,292.48805 198.1355,293.01149 C 198.1355,293.53493 198.24618,293.94769 198.46754,294.24977 C 198.69149,294.54925 198.99748,294.69899 199.3855,294.69899 C 199.76831,294.69899 200.0717,294.54795 200.29566,294.24586 C 200.51961,293.94378 200.63159,293.53232 200.6316,293.01149 C 200.63159,292.49326 200.51961,292.08311 200.29566,291.78102 C 200.0717,291.47634 199.76831,291.32399 199.3855,291.32399 M 199.3855,290.71461 C 200.0105,290.71462 200.50139,290.91774 200.85816,291.32399 C 201.21493,291.73024 201.39331,292.29274 201.39332,293.01149 C 201.39331,293.72764 201.21493,294.29014 200.85816,294.69899 C 200.50139,295.10524 200.0105,295.30836 199.3855,295.30836 C 198.7579,295.30836 198.26571,295.10524 197.90894,294.69899 C 197.55477,294.29014 197.37769,293.72764 197.37769,293.01149 C 197.37769,292.29274 197.55477,291.73024 197.90894,291.32399 C 198.26571,290.91774 198.7579,290.71462 199.3855,290.71461 M 202.58082,289.11696 L 203.29957,289.11696 L 203.29957,295.19508 L 202.58082,295.19508 L 202.58082,289.11696 M 204.72535,293.46852 L 204.72535,290.82008 L 205.4441,290.82008 L 205.4441,293.44118 C 205.4441,293.85524 205.52483,294.16644 205.68628,294.37477 C 205.84774,294.5805 206.08993,294.68337 206.41285,294.68336 C 206.80087,294.68337 207.10685,294.55967 207.33082,294.31227 C 207.55738,294.06488 207.67066,293.72764 207.67066,293.30055 L 207.67066,290.82008 L 208.38941,290.82008 L 208.38941,295.19508 L 207.67066,295.19508 L 207.67066,294.52321 C 207.49618,294.78883 207.29305,294.98675 207.06128,295.11696 C 206.83212,295.24456 206.56519,295.30836 206.2605,295.30836 C 205.7579,295.30836 205.37639,295.15211 205.11597,294.83961 C 204.85556,294.52712 204.72535,294.07008 204.72535,293.46852 M 213.28394,291.65993 C 213.46362,291.33701 213.67847,291.09873 213.92847,290.94508 C 214.17847,290.79144 214.47274,290.71462 214.81128,290.71461 C 215.26701,290.71462 215.61857,290.87478 215.86597,291.19508 C 216.11336,291.5128 216.23706,291.96592 216.23707,292.55446 L 216.23707,295.19508 L 215.51441,295.19508 L 215.51441,292.5779 C 215.5144,292.15863 215.44018,291.84743 215.29175,291.6443 C 215.14331,291.44118 214.91675,291.33962 214.61207,291.33961 C 214.23967,291.33962 213.94539,291.46332 213.72925,291.71071 C 213.5131,291.95811 213.40503,292.29535 213.40504,292.72243 L 213.40504,295.19508 L 212.68238,295.19508 L 212.68238,292.5779 C 212.68238,292.15602 212.60816,291.84483 212.45972,291.6443 C 212.31128,291.44118 212.08212,291.33962 211.77222,291.33961 C 211.40503,291.33962 211.11337,291.46462 210.89722,291.71461 C 210.68108,291.96201 210.573,292.29795 210.573,292.72243 L 210.573,295.19508 L 209.85035,295.19508 L 209.85035,290.82008 L 210.573,290.82008 L 210.573,291.49977 C 210.73706,291.23155 210.93368,291.03363 211.16285,290.90602 C 211.39201,290.77842 211.66415,290.71462 211.97925,290.71461 C 212.29696,290.71462 212.56649,290.79535 212.78785,290.9568 C 213.0118,291.11826 213.17717,291.35264 213.28394,291.65993 M 221.41675,292.8279 L 221.41675,293.17946 L 218.11207,293.17946 C 218.14332,293.67425 218.29175,294.05186 218.55738,294.31227 C 218.82561,294.57008 219.198,294.69899 219.67457,294.69899 C 219.9506,294.69899 220.21753,294.66514 220.47535,294.59743 C 220.73576,294.52972 220.99357,294.42816 221.24878,294.29274 L 221.24878,294.97243 C 220.99097,295.0818 220.72665,295.16514 220.45582,295.22243 C 220.18498,295.27972 219.91024,295.30836 219.6316,295.30836 C 218.93368,295.30836 218.38029,295.10524 217.97144,294.69899 C 217.56519,294.29274 217.36207,293.74326 217.36207,293.05055 C 217.36207,292.33441 217.55477,291.7667 217.94019,291.34743 C 218.32821,290.92556 218.85035,290.71462 219.5066,290.71461 C 220.09514,290.71462 220.55998,290.90472 220.90113,291.28493 C 221.24487,291.66253 221.41675,292.17686 221.41675,292.8279 M 220.698,292.61696 C 220.69279,292.22373 220.58211,291.90993 220.36597,291.67555 C 220.15243,291.44118 219.86857,291.32399 219.51441,291.32399 C 219.11337,291.32399 218.79175,291.43727 218.54957,291.66383 C 218.30998,291.8904 218.17196,292.20941 218.1355,292.62086 L 220.698,292.61696 M 228.67066,289.55446 L 228.67066,290.32399 C 228.37118,290.18077 228.08863,290.07399 227.823,290.00368 C 227.55738,289.93337 227.30087,289.89821 227.05347,289.89821 C 226.62378,289.89821 226.29175,289.98155 226.05738,290.14821 C 225.82561,290.31488 225.70972,290.55186 225.70972,290.85915 C 225.70972,291.11696 225.78654,291.31227 225.94019,291.44508 C 226.09644,291.5753 226.39071,291.68076 226.823,291.76149 L 227.29957,291.85915 C 227.8881,291.97113 228.3217,292.16904 228.60035,292.4529 C 228.88159,292.73415 229.02222,293.11175 229.02222,293.58571 C 229.02222,294.15081 228.83211,294.5792 228.45191,294.87086 C 228.0743,295.16253 227.51962,295.30836 226.78785,295.30836 C 226.5118,295.30836 226.21753,295.27711 225.90504,295.21461 C 225.59514,295.15211 225.27352,295.05967 224.94019,294.93727 L 224.94019,294.12477 C 225.2605,294.30446 225.5743,294.43988 225.8816,294.53102 C 226.18889,294.62217 226.49097,294.66774 226.78785,294.66774 C 227.23837,294.66774 227.58602,294.5792 227.83082,294.40211 C 228.0756,294.22503 228.198,293.97243 228.198,293.6443 C 228.198,293.35785 228.10946,293.13389 227.93238,292.97243 C 227.7579,292.81097 227.47014,292.68988 227.0691,292.60915 L 226.58863,292.5154 C 226.00009,292.39821 225.5743,292.21462 225.31128,291.96461 C 225.04826,291.71462 224.91675,291.36696 224.91675,290.92165 C 224.91675,290.40603 225.09774,289.99978 225.45972,289.7029 C 225.8243,289.40603 226.32561,289.25759 226.96363,289.25758 C 227.23706,289.25759 227.51571,289.28233 227.79957,289.3318 C 228.08342,289.38129 228.37378,289.45551 228.67066,289.55446 M 233.96363,292.8279 L 233.96363,293.17946 L 230.65894,293.17946 C 230.69019,293.67425 230.83863,294.05186 231.10425,294.31227 C 231.37248,294.57008 231.74488,294.69899 232.22144,294.69899 C 232.49748,294.69899 232.76441,294.66514 233.02222,294.59743 C 233.28264,294.52972 233.54045,294.42816 233.79566,294.29274 L 233.79566,294.97243 C 233.53784,295.0818 233.27352,295.16514 233.00269,295.22243 C 232.73185,295.27972 232.45712,295.30836 232.17847,295.30836 C 231.48055,295.30836 230.92717,295.10524 230.51832,294.69899 C 230.11207,294.29274 229.90894,293.74326 229.90894,293.05055 C 229.90894,292.33441 230.10165,291.7667 230.48707,291.34743 C 230.87509,290.92556 231.39722,290.71462 232.05347,290.71461 C 232.64201,290.71462 233.10685,290.90472 233.448,291.28493 C 233.79175,291.66253 233.96362,292.17686 233.96363,292.8279 M 233.24488,292.61696 C 233.23967,292.22373 233.12899,291.90993 232.91285,291.67555 C 232.6993,291.44118 232.41545,291.32399 232.06128,291.32399 C 231.66024,291.32399 231.33863,291.43727 231.09644,291.66383 C 230.85686,291.8904 230.71884,292.20941 230.68238,292.62086 L 233.24488,292.61696 M 238.02222,292.9568 C 238.02222,292.43597 237.91415,292.03233 237.698,291.74586 C 237.48446,291.45941 237.18368,291.31618 236.79566,291.31618 C 236.41024,291.31618 236.10946,291.45941 235.89332,291.74586 C 235.67977,292.03233 235.573,292.43597 235.573,292.9568 C 235.573,293.47503 235.67977,293.87738 235.89332,294.16383 C 236.10946,294.45029 236.41024,294.59352 236.79566,294.59352 C 237.18368,294.59352 237.48446,294.45029 237.698,294.16383 C 237.91415,293.87738 238.02222,293.47503 238.02222,292.9568 M 238.74097,294.65211 C 238.74097,295.39691 238.5756,295.95029 238.24488,296.31227 C 237.91415,296.67685 237.40764,296.85914 236.72535,296.85915 C 236.47274,296.85914 236.23446,296.83961 236.0105,296.80055 C 235.78654,296.76409 235.5691,296.7068 235.35816,296.62868 L 235.35816,295.92946 C 235.5691,296.04404 235.77743,296.12868 235.98316,296.18336 C 236.18889,296.23805 236.39852,296.26539 236.61207,296.2654 C 237.08342,296.26539 237.43628,296.1417 237.67066,295.8943 C 237.90503,295.64951 238.02222,295.27842 238.02222,294.78102 L 238.02222,294.42555 C 237.87378,294.68337 237.68368,294.87607 237.45191,295.00368 C 237.22014,295.13128 236.94279,295.19508 236.61988,295.19508 C 236.08342,295.19508 235.65113,294.99066 235.323,294.5818 C 234.99488,294.17295 234.83082,293.63128 234.83082,292.9568 C 234.83082,292.27972 234.99488,291.73675 235.323,291.3279 C 235.65113,290.91905 236.08342,290.71462 236.61988,290.71461 C 236.94279,290.71462 237.22014,290.77842 237.45191,290.90602 C 237.68368,291.03363 237.87378,291.22634 238.02222,291.48415 L 238.02222,290.82008 L 238.74097,290.82008 L 238.74097,294.65211 M 243.62769,291.65993 C 243.80737,291.33701 244.02222,291.09873 244.27222,290.94508 C 244.52222,290.79144 244.81649,290.71462 245.15504,290.71461 C 245.61076,290.71462 245.96232,290.87478 246.20972,291.19508 C 246.45711,291.5128 246.58081,291.96592 246.58082,292.55446 L 246.58082,295.19508 L 245.85816,295.19508 L 245.85816,292.5779 C 245.85815,292.15863 245.78393,291.84743 245.6355,291.6443 C 245.48706,291.44118 245.2605,291.33962 244.95582,291.33961 C 244.58342,291.33962 244.28914,291.46332 244.073,291.71071 C 243.85685,291.95811 243.74878,292.29535 243.74878,292.72243 L 243.74878,295.19508 L 243.02613,295.19508 L 243.02613,292.5779 C 243.02613,292.15602 242.95191,291.84483 242.80347,291.6443 C 242.65503,291.44118 242.42587,291.33962 242.11597,291.33961 C 241.74878,291.33962 241.45712,291.46462 241.24097,291.71461 C 241.02483,291.96201 240.91675,292.29795 240.91675,292.72243 L 240.91675,295.19508 L 240.1941,295.19508 L 240.1941,290.82008 L 240.91675,290.82008 L 240.91675,291.49977 C 241.08081,291.23155 241.27743,291.03363 241.5066,290.90602 C 241.73576,290.77842 242.0079,290.71462 242.323,290.71461 C 242.64071,290.71462 242.91024,290.79535 243.1316,290.9568 C 243.35555,291.11826 243.52092,291.35264 243.62769,291.65993 M 251.7605,292.8279 L 251.7605,293.17946 L 248.45582,293.17946 C 248.48707,293.67425 248.6355,294.05186 248.90113,294.31227 C 249.16936,294.57008 249.54175,294.69899 250.01832,294.69899 C 250.29435,294.69899 250.56128,294.66514 250.8191,294.59743 C 251.07951,294.52972 251.33732,294.42816 251.59254,294.29274 L 251.59254,294.97243 C 251.33472,295.0818 251.0704,295.16514 250.79957,295.22243 C 250.52873,295.27972 250.25399,295.30836 249.97535,295.30836 C 249.27743,295.30836 248.72404,295.10524 248.31519,294.69899 C 247.90894,294.29274 247.70582,293.74326 247.70582,293.05055 C 247.70582,292.33441 247.89852,291.7667 248.28394,291.34743 C 248.67196,290.92556 249.1941,290.71462 249.85035,290.71461 C 250.43889,290.71462 250.90373,290.90472 251.24488,291.28493 C 251.58862,291.66253 251.7605,292.17686 251.7605,292.8279 M 251.04175,292.61696 C 251.03654,292.22373 250.92586,291.90993 250.70972,291.67555 C 250.49618,291.44118 250.21232,291.32399 249.85816,291.32399 C 249.45712,291.32399 249.1355,291.43727 248.89332,291.66383 C 248.65373,291.8904 248.51571,292.20941 248.47925,292.62086 L 251.04175,292.61696 M 256.57691,292.55446 L 256.57691,295.19508 L 255.85816,295.19508 L 255.85816,292.5779 C 255.85816,292.16384 255.77743,291.85394 255.61597,291.64821 C 255.45451,291.44248 255.21232,291.33962 254.88941,291.33961 C 254.50139,291.33962 254.1954,291.46332 253.97144,291.71071 C 253.74748,291.95811 253.6355,292.29535 253.6355,292.72243 L 253.6355,295.19508 L 252.91285,295.19508 L 252.91285,290.82008 L 253.6355,290.82008 L 253.6355,291.49977 C 253.80738,291.23675 254.0092,291.04014 254.24097,290.90993 C 254.47535,290.77972 254.74488,290.71462 255.04957,290.71461 C 255.55217,290.71462 255.93238,290.87087 256.19019,291.18336 C 256.448,291.49326 256.57691,291.95029 256.57691,292.55446 M 258.72925,289.5779 L 258.72925,290.82008 L 260.20972,290.82008 L 260.20972,291.37868 L 258.72925,291.37868 L 258.72925,293.75368 C 258.72925,294.11045 258.77743,294.33962 258.87378,294.44118 C 258.97274,294.54274 259.17196,294.59352 259.47144,294.59352 L 260.20972,294.59352 L 260.20972,295.19508 L 259.47144,295.19508 C 258.91675,295.19508 258.53394,295.09222 258.323,294.88649 C 258.11207,294.67816 258.0066,294.30055 258.0066,293.75368 L 258.0066,291.37868 L 257.47925,291.37868 L 257.47925,290.82008 L 258.0066,290.82008 L 258.0066,289.5779 L 258.72925,289.5779"
     id="flowRoot14825" />
  <path
     d="M 450.56318,177.61135 L 303.58599,177.61135"
     style="fill:none;fill-opacity:0.75;fill-rule:evenodd;stroke:#000000;stroke-width:1;stroke-linecap:butt;stroke-linejoin:miter;stroke-miterlimit:4;stroke-dasharray:1, 12;stroke-dashoffset:0;stroke-opacity:1"
     id="path14865" />
  <path
     d="M 320.18344,145.83381 L 320.18344,143.46662 L 320.90219,143.46662 L 320.90219,149.54474 L 320.18344,149.54474 L 320.18344,148.88849 C 320.0324,149.14891 319.84099,149.34292 319.60922,149.47052 C 319.38005,149.59552 319.10401,149.65802 318.7811,149.65802 C 318.25245,149.65802 317.82146,149.44709 317.48813,149.02521 C 317.1574,148.60334 316.99204,148.04865 316.99204,147.36115 C 316.99204,146.67365 317.1574,146.11897 317.48813,145.69709 C 317.82146,145.27522 318.25245,145.06428 318.7811,145.06427 C 319.10401,145.06428 319.38005,145.12808 319.60922,145.25568 C 319.84099,145.38068 320.0324,145.57339 320.18344,145.83381 M 317.73422,147.36115 C 317.73422,147.8898 317.8423,148.30516 318.05844,148.60724 C 318.27719,148.90672 318.57667,149.05646 318.95688,149.05646 C 319.33709,149.05646 319.63656,148.90672 319.85532,148.60724 C 320.07406,148.30516 320.18344,147.8898 320.18344,147.36115 C 320.18344,146.83251 320.07406,146.41844 319.85532,146.11896 C 319.63656,145.81688 319.33709,145.66584 318.95688,145.66584 C 318.57667,145.66584 318.27719,145.81688 318.05844,146.11896 C 317.8423,146.41844 317.73422,146.83251 317.73422,147.36115 M 321.86704,145.16974 L 322.62876,145.16974 L 323.99594,148.84162 L 325.36313,145.16974 L 326.12485,145.16974 L 324.48422,149.54474 L 323.50766,149.54474 L 321.86704,145.16974"
     id="flowRoot14867" />
  <g
     transform="translate(-11.016845,57.676452)"
     id="g3251">
    <path
       d="M 324.34375,89.71875 L 319.53125,92.8125 L 300.09375,105.375 L 300.625,106.21875 L 320.09375,93.65625 L 324.875,90.5625 L 324.34375,89.71875 z "
       style="fill:#000000;fill-opacity:1;fill-rule:evenodd;stroke:none;stroke-width:1px;stroke-linecap:butt;stroke-linejoin:miter;stroke-opacity:1"
       id="path14875" />
    <path
       d="M 298.42424,107.04491 L 300.24573,103.48769 L 302.41583,106.84785 L 298.42424,107.04491 z "
       style="fill-rule:evenodd;stroke:#000000;stroke-width:0.4pt;marker-start:none"
       id="path3257" />
  </g>
  <g
     transform="translate(-11.016845,57.676452)"
     id="g6435">
    <path
       d="M 282.34375,80.90625 L 270.03125,120.28125 L 271,120.59375 L 283.28125,81.21875 L 282.34375,80.90625 z "
       style="fill:#000000;fill-opacity:1;fill-rule:evenodd;stroke:none;stroke-width:1px;stroke-linecap:butt;stroke-linejoin:miter;stroke-opacity:1"
       id="path5266" />
    <path
       d="M 283.50721,78.851639 L 284.38414,82.75069 L 280.56622,81.55759 L 283.50721,78.851639 z "
       style="fill-rule:evenodd;stroke:#000000;stroke-width:0.4pt;marker-start:none"
       id="path6441" />
  </g>
  <g
     id="g2286">
    <path
       d="M 99.59375,58.25 L 99.59375,59.25 C 142.63935,59.249998 109.66821,59.25 142.625,59.25 C 175.58179,59.249998 161.47435,59.25 185.6875,59.25 C 209.90065,59.249998 211.90407,59.25 228.71875,59.25 C 245.53344,59.249998 261.01985,59.25 271.78125,59.25 C 282.54265,59.249998 308.75921,59.25 314.8125,59.25 C 320.86579,59.249998 355.1534,59.25 357.84375,59.25 C 360.53409,59.249998 400.23366,59.25 400.90625,59.25 C 401.57878,59.249998 443.9375,59.25 443.9375,59.25 L 443.9375,58.25 C 443.9375,58.25 401.57889,58.249998 400.90625,58.25 C 400.23366,58.25 360.5341,58.249998 357.84375,58.25 C 355.1534,58.25 320.86579,58.249998 314.8125,58.25 C 308.75921,58.25 282.54265,58.249998 271.78125,58.25 C 261.01985,58.25 245.53344,58.249998 228.71875,58.25 C 211.90407,58.25 209.90065,58.249998 185.6875,58.25 C 161.47435,58.25 175.58179,58.249998 142.625,58.25 C 109.66821,58.25 142.63935,58.249998 99.59375,58.25 z "
       style="fill:#000000;fill-opacity:1;fill-rule:evenodd;stroke:none;stroke-width:1px;stroke-linecap:butt;stroke-linejoin:miter;stroke-opacity:1"
       id="path9723" />
    <path
       d="M 144.93813,58.757559 L 141.47813,60.757559 L 141.47813,56.757559 L 144.93813,58.757559 z "
       style="fill-rule:evenodd;stroke:#000000;stroke-width:0.4pt;marker-start:none"
       id="path2292" />
    <path
       d="M 187.98372,58.757559 L 184.52372,60.757559 L 184.52372,56.757559 L 187.98372,58.757559 z "
       style="fill-rule:evenodd;stroke:#000000;stroke-width:0.4pt;marker-start:none"
       id="path2294" />
    <path
       d="M 231.02931,58.757559 L 227.56931,60.757559 L 227.56931,56.757559 L 231.02931,58.757559 z "
       style="fill-rule:evenodd;stroke:#000000;stroke-width:0.4pt;marker-start:none"
       id="path2296" />
    <path
       d="M 274.07491,58.757559 L 270.61491,60.757559 L 270.61491,56.757559 L 274.07491,58.757559 z "
       style="fill-rule:evenodd;stroke:#000000;stroke-width:0.4pt;marker-start:none"
       id="path2298" />
    <path
       d="M 317.1205,58.757559 L 313.6605,60.757559 L 313.6605,56.757559 L 317.1205,58.757559 z "
       style="fill-rule:evenodd;stroke:#000000;stroke-width:0.4pt;marker-start:none"
       id="path2300" />
    <path
       d="M 360.16609,58.757559 L 356.70609,60.757559 L 356.70609,56.757559 L 360.16609,58.757559 z "
       style="fill-rule:evenodd;stroke:#000000;stroke-width:0.4pt;marker-start:none"
       id="path2302" />
    <path
       d="M 403.21169,58.757559 L 399.75169,60.757559 L 399.75169,56.757559 L 403.21169,58.757559 z "
       style="fill-rule:evenodd;stroke:#000000;stroke-width:0.4pt;marker-start:none"
       id="path2304" />
    <path
       d="M 448.56528,58.757559 L 441.64528,62.757559 L 441.64528,54.757559 L 448.56528,58.757559 z "
       style="fill-rule:evenodd;stroke:#000000;stroke-width:0.8pt;marker-start:none"
       id="path2306" />
  </g>
  <path
     d="M 112.09668,-70.749896 L 112.09668,-69.709857 C 111.76464,-70.019096 111.40982,-70.250215 111.03223,-70.403216 C 110.65787,-70.556205 110.25911,-70.632702 109.83594,-70.632709 C 109.0026,-70.632702 108.36458,-70.377168 107.92188,-69.866107 C 107.47916,-69.358289 107.25781,-68.622613 107.25781,-67.659076 C 107.25781,-66.698787 107.47916,-65.96311 107.92188,-65.452044 C 108.36458,-64.944231 109.0026,-64.690325 109.83594,-64.690326 C 110.25911,-64.690325 110.65787,-64.766822 111.03223,-64.919818 C 111.40982,-65.072812 111.76464,-65.303931 112.09668,-65.613177 L 112.09668,-64.582904 C 111.75162,-64.348528 111.38541,-64.172747 110.99805,-64.05556 C 110.61393,-63.938373 110.20703,-63.879779 109.77734,-63.879779 C 108.67383,-63.879779 107.80469,-64.216693 107.16992,-64.890521 C 106.53516,-65.567603 106.21777,-66.490453 106.21777,-67.659076 C 106.21777,-68.830946 106.53516,-69.753797 107.16992,-70.42763 C 107.80469,-71.104707 108.67383,-71.443248 109.77734,-71.443255 C 110.21354,-71.443248 110.62369,-71.384654 111.00781,-71.267474 C 111.39518,-71.153535 111.75813,-70.981009 112.09668,-70.749896 M 118.13672,-67.322162 L 118.13672,-64.02138 L 117.23828,-64.02138 L 117.23828,-67.292865 C 117.23828,-67.810439 117.13737,-68.197808 116.93555,-68.454974 C 116.73372,-68.712131 116.43099,-68.840711 116.02734,-68.840716 C 115.54231,-68.840711 115.15983,-68.686089 114.87988,-68.376849 C 114.59993,-68.0676 114.45996,-67.646051 114.45996,-67.112201 L 114.45996,-64.02138 L 113.55664,-64.02138 L 113.55664,-71.619037 L 114.45996,-71.619037 L 114.45996,-68.640521 C 114.6748,-68.969292 114.92708,-69.21506 115.2168,-69.377826 C 115.50976,-69.540581 115.84668,-69.621961 116.22754,-69.621966 C 116.85579,-69.621961 117.33105,-69.426648 117.65332,-69.036029 C 117.97558,-68.648654 118.13671,-68.077366 118.13672,-67.322162 M 122.42383,-66.770404 C 121.69791,-66.770401 121.19498,-66.687393 120.91504,-66.52138 C 120.63509,-66.355362 120.49512,-66.07216 120.49512,-65.671771 C 120.49512,-65.352759 120.59928,-65.098853 120.80762,-64.910052 C 121.0192,-64.724505 121.30566,-64.631731 121.66699,-64.631732 C 122.16504,-64.631731 122.5638,-64.807512 122.86328,-65.159076 C 123.16601,-65.513892 123.31738,-65.984269 123.31738,-66.570209 L 123.31738,-66.770404 L 122.42383,-66.770404 M 124.21582,-67.141498 L 124.21582,-64.02138 L 123.31738,-64.02138 L 123.31738,-64.851459 C 123.1123,-64.519427 122.85677,-64.273659 122.55078,-64.114154 C 122.24479,-63.957904 121.87044,-63.879779 121.42773,-63.879779 C 120.86784,-63.879779 120.42187,-64.036029 120.08984,-64.348529 C 119.76107,-64.664283 119.59668,-65.085832 119.59668,-65.613177 C 119.59668,-66.228409 119.80176,-66.692276 120.21191,-67.004779 C 120.62532,-67.317276 121.24056,-67.473525 122.05762,-67.473529 L 123.31738,-67.473529 L 123.31738,-67.561419 C 123.31738,-67.974827 123.18066,-68.293837 122.90723,-68.518451 C 122.63704,-68.746311 122.25618,-68.860243 121.76465,-68.860248 C 121.45215,-68.860243 121.14778,-68.822808 120.85156,-68.747943 C 120.55534,-68.673068 120.27051,-68.560764 119.99707,-68.411029 L 119.99707,-69.241107 C 120.32585,-69.368055 120.64486,-69.462456 120.9541,-69.52431 C 121.26334,-69.589409 121.56445,-69.621961 121.85742,-69.621966 C 122.64843,-69.621961 123.23925,-69.416883 123.62988,-69.006732 C 124.0205,-68.596571 124.21582,-67.974827 124.21582,-67.141498 M 130.63672,-67.322162 L 130.63672,-64.02138 L 129.73828,-64.02138 L 129.73828,-67.292865 C 129.73828,-67.810439 129.63737,-68.197808 129.43555,-68.454974 C 129.23372,-68.712131 128.93099,-68.840711 128.52734,-68.840716 C 128.04231,-68.840711 127.65983,-68.686089 127.37988,-68.376849 C 127.09993,-68.0676 126.95996,-67.646051 126.95996,-67.112201 L 126.95996,-64.02138 L 126.05664,-64.02138 L 126.05664,-69.49013 L 126.95996,-69.49013 L 126.95996,-68.640521 C 127.1748,-68.969292 127.42708,-69.21506 127.7168,-69.377826 C 128.00976,-69.540581 128.34668,-69.621961 128.72754,-69.621966 C 129.35579,-69.621961 129.83105,-69.426648 130.15332,-69.036029 C 130.47558,-68.648654 130.63671,-68.077366 130.63672,-67.322162 M 136.03711,-66.819232 C 136.0371,-67.47027 135.90201,-67.974827 135.63184,-68.332904 C 135.3649,-68.690972 134.98893,-68.870008 134.50391,-68.870013 C 134.02213,-68.870008 133.64616,-68.690972 133.37598,-68.332904 C 133.10905,-67.974827 132.97558,-67.47027 132.97559,-66.819232 C 132.97558,-66.171443 133.10905,-65.668514 133.37598,-65.310443 C 133.64616,-64.952369 134.02213,-64.773333 134.50391,-64.773334 C 134.98893,-64.773333 135.3649,-64.952369 135.63184,-65.310443 C 135.90201,-65.668514 136.0371,-66.171443 136.03711,-66.819232 M 136.93555,-64.700091 C 136.93554,-63.769102 136.72884,-63.077371 136.31543,-62.624896 C 135.90201,-62.169169 135.26888,-61.941304 134.41602,-61.941302 C 134.10026,-61.941304 133.80241,-61.965718 133.52246,-62.014544 C 133.24251,-62.060119 132.9707,-62.131734 132.70703,-62.229388 L 132.70703,-63.103412 C 132.9707,-62.960184 133.23112,-62.854389 133.48828,-62.786029 C 133.74544,-62.717671 134.00748,-62.683491 134.27441,-62.68349 C 134.8636,-62.683491 135.30468,-62.838113 135.59766,-63.147357 C 135.89062,-63.453347 136.0371,-63.917214 136.03711,-64.538959 L 136.03711,-64.983294 C 135.85156,-64.661028 135.61393,-64.420143 135.32422,-64.260638 C 135.0345,-64.101133 134.68782,-64.02138 134.28418,-64.02138 C 133.6136,-64.02138 133.07324,-64.276914 132.66309,-64.787982 C 132.25293,-65.299048 132.04785,-65.976131 132.04785,-66.819232 C 132.04785,-67.665582 132.25293,-68.344293 132.66309,-68.855365 C 133.07324,-69.366427 133.6136,-69.621961 134.28418,-69.621966 C 134.68782,-69.621961 135.0345,-69.542208 135.32422,-69.382709 C 135.61393,-69.223198 135.85156,-68.982313 136.03711,-68.660052 L 136.03711,-69.49013 L 136.93555,-69.49013 L 136.93555,-64.700091 M 138.78613,-69.49013 L 139.68457,-69.49013 L 139.68457,-64.02138 L 138.78613,-64.02138 L 138.78613,-69.49013 M 138.78613,-71.619037 L 139.68457,-71.619037 L 139.68457,-70.481341 L 138.78613,-70.481341 L 138.78613,-71.619037 M 146.10547,-67.322162 L 146.10547,-64.02138 L 145.20703,-64.02138 L 145.20703,-67.292865 C 145.20703,-67.810439 145.10612,-68.197808 144.9043,-68.454974 C 144.70247,-68.712131 144.39974,-68.840711 143.99609,-68.840716 C 143.51106,-68.840711 143.12858,-68.686089 142.84863,-68.376849 C 142.56868,-68.0676 142.42871,-67.646051 142.42871,-67.112201 L 142.42871,-64.02138 L 141.52539,-64.02138 L 141.52539,-69.49013 L 142.42871,-69.49013 L 142.42871,-68.640521 C 142.64355,-68.969292 142.89583,-69.21506 143.18555,-69.377826 C 143.47851,-69.540581 143.81543,-69.621961 144.19629,-69.621966 C 144.82454,-69.621961 145.2998,-69.426648 145.62207,-69.036029 C 145.94433,-68.648654 146.10546,-68.077366 146.10547,-67.322162 M 151.50586,-66.819232 C 151.50585,-67.47027 151.37076,-67.974827 151.10059,-68.332904 C 150.83365,-68.690972 150.45768,-68.870008 149.97266,-68.870013 C 149.49088,-68.870008 149.11491,-68.690972 148.84473,-68.332904 C 148.5778,-67.974827 148.44433,-67.47027 148.44434,-66.819232 C 148.44433,-66.171443 148.5778,-65.668514 148.84473,-65.310443 C 149.11491,-64.952369 149.49088,-64.773333 149.97266,-64.773334 C 150.45768,-64.773333 150.83365,-64.952369 151.10059,-65.310443 C 151.37076,-65.668514 151.50585,-66.171443 151.50586,-66.819232 M 152.4043,-64.700091 C 152.40429,-63.769102 152.19759,-63.077371 151.78418,-62.624896 C 151.37076,-62.169169 150.73763,-61.941304 149.88477,-61.941302 C 149.56901,-61.941304 149.27116,-61.965718 148.99121,-62.014544 C 148.71126,-62.060119 148.43945,-62.131734 148.17578,-62.229388 L 148.17578,-63.103412 C 148.43945,-62.960184 148.69987,-62.854389 148.95703,-62.786029 C 149.21419,-62.717671 149.47623,-62.683491 149.74316,-62.68349 C 150.33235,-62.683491 150.77343,-62.838113 151.06641,-63.147357 C 151.35937,-63.453347 151.50585,-63.917214 151.50586,-64.538959 L 151.50586,-64.983294 C 151.32031,-64.661028 151.08268,-64.420143 150.79297,-64.260638 C 150.50325,-64.101133 150.15657,-64.02138 149.75293,-64.02138 C 149.08235,-64.02138 148.54199,-64.276914 148.13184,-64.787982 C 147.72168,-65.299048 147.5166,-65.976131 147.5166,-66.819232 C 147.5166,-67.665582 147.72168,-68.344293 148.13184,-68.855365 C 148.54199,-69.366427 149.08235,-69.621961 149.75293,-69.621966 C 150.15657,-69.621961 150.50325,-69.542208 150.79297,-69.382709 C 151.08268,-69.223198 151.32031,-68.982313 151.50586,-68.660052 L 151.50586,-69.49013 L 152.4043,-69.49013 L 152.4043,-64.700091 M 161.37402,-69.280169 L 161.37402,-68.440326 C 161.12011,-68.580295 160.86458,-68.684462 160.60742,-68.752826 C 160.35351,-68.824435 160.09635,-68.860243 159.83594,-68.860248 C 159.25325,-68.860243 158.80078,-68.674696 158.47852,-68.303607 C 158.15625,-67.935764 157.99512,-67.418187 157.99512,-66.750873 C 157.99512,-66.083553 158.15625,-65.564348 158.47852,-65.193255 C 158.80078,-64.825416 159.25325,-64.641497 159.83594,-64.641498 C 160.09635,-64.641497 160.35351,-64.675677 160.60742,-64.744037 C 160.86458,-64.81565 161.12011,-64.921445 161.37402,-65.061419 L 161.37402,-64.231341 C 161.12337,-64.114154 160.86295,-64.026263 160.59277,-63.967669 C 160.32584,-63.909076 160.04101,-63.879779 159.73828,-63.879779 C 158.91471,-63.879779 158.26041,-64.138568 157.77539,-64.656146 C 157.29036,-65.173723 157.04785,-65.871964 157.04785,-66.750873 C 157.04785,-67.642796 157.29199,-68.344293 157.78027,-68.855365 C 158.27181,-69.366427 158.94401,-69.621961 159.79688,-69.621966 C 160.07356,-69.621961 160.34375,-69.592664 160.60742,-69.534076 C 160.87109,-69.478732 161.12662,-69.394096 161.37402,-69.280169 M 165.06543,-68.860248 C 164.58366,-68.860243 164.2028,-68.671441 163.92285,-68.293841 C 163.6429,-67.919488 163.50293,-67.405166 163.50293,-66.750873 C 163.50293,-66.096574 163.64127,-65.580624 163.91797,-65.203021 C 164.19791,-64.828671 164.5804,-64.641497 165.06543,-64.641498 C 165.54394,-64.641497 165.92317,-64.830299 166.20312,-65.207904 C 166.48307,-65.585506 166.62304,-66.099829 166.62305,-66.750873 C 166.62304,-67.398656 166.48307,-67.91135 166.20312,-68.288959 C 165.92317,-68.669813 165.54394,-68.860243 165.06543,-68.860248 M 165.06543,-69.621966 C 165.84668,-69.621961 166.46028,-69.368055 166.90625,-68.860248 C 167.35221,-68.352431 167.57519,-67.649306 167.5752,-66.750873 C 167.57519,-65.855688 167.35221,-65.152564 166.90625,-64.641498 C 166.46028,-64.133685 165.84668,-63.879779 165.06543,-63.879779 C 164.28092,-63.879779 163.66569,-64.133685 163.21973,-64.641498 C 162.77702,-65.152564 162.55566,-65.855688 162.55566,-66.750873 C 162.55566,-67.649306 162.77702,-68.352431 163.21973,-68.860248 C 163.66569,-69.368055 164.28092,-69.621961 165.06543,-69.621966 M 173.60547,-67.322162 L 173.60547,-64.02138 L 172.70703,-64.02138 L 172.70703,-67.292865 C 172.70703,-67.810439 172.60612,-68.197808 172.4043,-68.454974 C 172.20247,-68.712131 171.89974,-68.840711 171.49609,-68.840716 C 171.01106,-68.840711 170.62858,-68.686089 170.34863,-68.376849 C 170.06868,-68.0676 169.92871,-67.646051 169.92871,-67.112201 L 169.92871,-64.02138 L 169.02539,-64.02138 L 169.02539,-69.49013 L 169.92871,-69.49013 L 169.92871,-68.640521 C 170.14355,-68.969292 170.39583,-69.21506 170.68555,-69.377826 C 170.97851,-69.540581 171.31543,-69.621961 171.69629,-69.621966 C 172.32454,-69.621961 172.7998,-69.426648 173.12207,-69.036029 C 173.44433,-68.648654 173.60546,-68.077366 173.60547,-67.322162 M 179.34277,-69.280169 L 179.34277,-68.440326 C 179.08886,-68.580295 178.83333,-68.684462 178.57617,-68.752826 C 178.32226,-68.824435 178.0651,-68.860243 177.80469,-68.860248 C 177.222,-68.860243 176.76953,-68.674696 176.44727,-68.303607 C 176.125,-67.935764 175.96387,-67.418187 175.96387,-66.750873 C 175.96387,-66.083553 176.125,-65.564348 176.44727,-65.193255 C 176.76953,-64.825416 177.222,-64.641497 177.80469,-64.641498 C 178.0651,-64.641497 178.32226,-64.675677 178.57617,-64.744037 C 178.83333,-64.81565 179.08886,-64.921445 179.34277,-65.061419 L 179.34277,-64.231341 C 179.09212,-64.114154 178.8317,-64.026263 178.56152,-63.967669 C 178.29459,-63.909076 178.00976,-63.879779 177.70703,-63.879779 C 176.88346,-63.879779 176.22916,-64.138568 175.74414,-64.656146 C 175.25911,-65.173723 175.0166,-65.871964 175.0166,-66.750873 C 175.0166,-67.642796 175.26074,-68.344293 175.74902,-68.855365 C 176.24056,-69.366427 176.91276,-69.621961 177.76562,-69.621966 C 178.04231,-69.621961 178.3125,-69.592664 178.57617,-69.534076 C 178.83984,-69.478732 179.09537,-69.394096 179.34277,-69.280169 M 185.59277,-66.980365 L 185.59277,-66.540912 L 181.46191,-66.540912 C 181.50098,-65.92242 181.68652,-65.450415 182.01855,-65.124896 C 182.35384,-64.80263 182.81933,-64.641497 183.41504,-64.641498 C 183.76009,-64.641497 184.09375,-64.683815 184.41602,-64.768451 C 184.74153,-64.853085 185.0638,-64.980038 185.38281,-65.14931 L 185.38281,-64.299701 C 185.06054,-64.162982 184.73014,-64.058815 184.3916,-63.987201 C 184.05306,-63.915586 183.70963,-63.879779 183.36133,-63.879779 C 182.48893,-63.879779 181.7972,-64.133685 181.28613,-64.641498 C 180.77832,-65.149309 180.52441,-65.836157 180.52441,-66.702044 C 180.52441,-67.597223 180.7653,-68.306858 181.24707,-68.830951 C 181.73209,-69.358289 182.38476,-69.621961 183.20508,-69.621966 C 183.94075,-69.621961 184.52181,-69.384331 184.94824,-68.909076 C 185.37792,-68.437066 185.59277,-67.794163 185.59277,-66.980365 M 184.69434,-67.244037 C 184.68782,-67.735569 184.54947,-68.127822 184.2793,-68.420794 C 184.01237,-68.713758 183.65755,-68.860243 183.21484,-68.860248 C 182.71354,-68.860243 182.31152,-68.718641 182.00879,-68.435443 C 181.70931,-68.152236 181.53678,-67.753473 181.49121,-67.239154 L 184.69434,-67.244037 M 191.59375,-67.322162 L 191.59375,-64.02138 L 190.69531,-64.02138 L 190.69531,-67.292865 C 190.69531,-67.810439 190.5944,-68.197808 190.39258,-68.454974 C 190.19075,-68.712131 189.88802,-68.840711 189.48438,-68.840716 C 188.99935,-68.840711 188.61686,-68.686089 188.33691,-68.376849 C 188.05696,-68.0676 187.91699,-67.646051 187.91699,-67.112201 L 187.91699,-64.02138 L 187.01367,-64.02138 L 187.01367,-69.49013 L 187.91699,-69.49013 L 187.91699,-68.640521 C 188.13183,-68.969292 188.38411,-69.21506 188.67383,-69.377826 C 188.96679,-69.540581 189.30371,-69.621961 189.68457,-69.621966 C 190.31282,-69.621961 190.78808,-69.426648 191.11035,-69.036029 C 191.43261,-68.648654 191.59374,-68.077366 191.59375,-67.322162 M 194.28418,-71.042865 L 194.28418,-69.49013 L 196.13477,-69.49013 L 196.13477,-68.791888 L 194.28418,-68.791888 L 194.28418,-65.823138 C 194.28418,-65.377173 194.3444,-65.090715 194.46484,-64.963763 C 194.58854,-64.836809 194.83756,-64.773333 195.21191,-64.773334 L 196.13477,-64.773334 L 196.13477,-64.02138 L 195.21191,-64.02138 C 194.51855,-64.02138 194.04004,-64.149961 193.77637,-64.407123 C 193.51269,-64.667539 193.38086,-65.139543 193.38086,-65.823138 L 193.38086,-68.791888 L 192.72168,-68.791888 L 192.72168,-69.49013 L 193.38086,-69.49013 L 193.38086,-71.042865 L 194.28418,-71.042865 M 200.49023,-68.650287 C 200.38932,-68.708876 200.27864,-68.751193 200.1582,-68.77724 C 200.04101,-68.806532 199.9108,-68.82118 199.76758,-68.821185 C 199.25976,-68.82118 198.86914,-68.655165 198.5957,-68.323138 C 198.32552,-67.994358 198.19043,-67.520726 198.19043,-66.90224 L 198.19043,-64.02138 L 197.28711,-64.02138 L 197.28711,-69.49013 L 198.19043,-69.49013 L 198.19043,-68.640521 C 198.37923,-68.972547 198.625,-69.218315 198.92773,-69.377826 C 199.23047,-69.540581 199.5983,-69.621961 200.03125,-69.621966 C 200.0931,-69.621961 200.16145,-69.617078 200.23633,-69.607318 C 200.31119,-69.600802 200.3942,-69.589409 200.48535,-69.573138 L 200.49023,-68.650287 M 203.9082,-66.770404 C 203.18229,-66.770401 202.67936,-66.687393 202.39941,-66.52138 C 202.11946,-66.355362 201.97949,-66.07216 201.97949,-65.671771 C 201.97949,-65.352759 202.08366,-65.098853 202.29199,-64.910052 C 202.50358,-64.724505 202.79004,-64.631731 203.15137,-64.631732 C 203.64941,-64.631731 204.04817,-64.807512 204.34766,-65.159076 C 204.65039,-65.513892 204.80175,-65.984269 204.80176,-66.570209 L 204.80176,-66.770404 L 203.9082,-66.770404 M 205.7002,-67.141498 L 205.7002,-64.02138 L 204.80176,-64.02138 L 204.80176,-64.851459 C 204.59668,-64.519427 204.34114,-64.273659 204.03516,-64.114154 C 203.72916,-63.957904 203.35481,-63.879779 202.91211,-63.879779 C 202.35221,-63.879779 201.90625,-64.036029 201.57422,-64.348529 C 201.24544,-64.664283 201.08105,-65.085832 201.08105,-65.613177 C 201.08105,-66.228409 201.28613,-66.692276 201.69629,-67.004779 C 202.1097,-67.317276 202.72493,-67.473525 203.54199,-67.473529 L 204.80176,-67.473529 L 204.80176,-67.561419 C 204.80175,-67.974827 204.66503,-68.293837 204.3916,-68.518451 C 204.12142,-68.746311 203.74056,-68.860243 203.24902,-68.860248 C 202.93652,-68.860243 202.63216,-68.822808 202.33594,-68.747943 C 202.03971,-68.673068 201.75488,-68.560764 201.48145,-68.411029 L 201.48145,-69.241107 C 201.81022,-69.368055 202.12923,-69.462456 202.43848,-69.52431 C 202.74772,-69.589409 203.04883,-69.621961 203.3418,-69.621966 C 204.13281,-69.621961 204.72363,-69.416883 205.11426,-69.006732 C 205.50488,-68.596571 205.70019,-67.974827 205.7002,-67.141498 M 208.46387,-71.042865 L 208.46387,-69.49013 L 210.31445,-69.49013 L 210.31445,-68.791888 L 208.46387,-68.791888 L 208.46387,-65.823138 C 208.46387,-65.377173 208.52409,-65.090715 208.64453,-64.963763 C 208.76823,-64.836809 209.01725,-64.773333 209.3916,-64.773334 L 210.31445,-64.773334 L 210.31445,-64.02138 L 209.3916,-64.02138 C 208.69824,-64.02138 208.21972,-64.149961 207.95605,-64.407123 C 207.69238,-64.667539 207.56055,-65.139543 207.56055,-65.823138 L 207.56055,-68.791888 L 206.90137,-68.791888 L 206.90137,-69.49013 L 207.56055,-69.49013 L 207.56055,-71.042865 L 208.46387,-71.042865 M 211.50098,-69.49013 L 212.39941,-69.49013 L 212.39941,-64.02138 L 211.50098,-64.02138 L 211.50098,-69.49013 M 211.50098,-71.619037 L 212.39941,-71.619037 L 212.39941,-70.481341 L 211.50098,-70.481341 L 211.50098,-71.619037 M 216.39355,-68.860248 C 215.91178,-68.860243 215.53092,-68.671441 215.25098,-68.293841 C 214.97103,-67.919488 214.83105,-67.405166 214.83105,-66.750873 C 214.83105,-66.096574 214.9694,-65.580624 215.24609,-65.203021 C 215.52604,-64.828671 215.90853,-64.641497 216.39355,-64.641498 C 216.87207,-64.641497 217.2513,-64.830299 217.53125,-65.207904 C 217.81119,-65.585506 217.95117,-66.099829 217.95117,-66.750873 C 217.95117,-67.398656 217.81119,-67.91135 217.53125,-68.288959 C 217.2513,-68.669813 216.87207,-68.860243 216.39355,-68.860248 M 216.39355,-69.621966 C 217.1748,-69.621961 217.78841,-69.368055 218.23438,-68.860248 C 218.68033,-68.352431 218.90331,-67.649306 218.90332,-66.750873 C 218.90331,-65.855688 218.68033,-65.152564 218.23438,-64.641498 C 217.78841,-64.133685 217.1748,-63.879779 216.39355,-63.879779 C 215.60905,-63.879779 214.99381,-64.133685 214.54785,-64.641498 C 214.10514,-65.152564 213.88379,-65.855688 213.88379,-66.750873 C 213.88379,-67.649306 214.10514,-68.352431 214.54785,-68.860248 C 214.99381,-69.368055 215.60905,-69.621961 216.39355,-69.621966 M 224.93359,-67.322162 L 224.93359,-64.02138 L 224.03516,-64.02138 L 224.03516,-67.292865 C 224.03515,-67.810439 223.93424,-68.197808 223.73242,-68.454974 C 223.53059,-68.712131 223.22786,-68.840711 222.82422,-68.840716 C 222.33919,-68.840711 221.9567,-68.686089 221.67676,-68.376849 C 221.39681,-68.0676 221.25683,-67.646051 221.25684,-67.112201 L 221.25684,-64.02138 L 220.35352,-64.02138 L 220.35352,-69.49013 L 221.25684,-69.49013 L 221.25684,-68.640521 C 221.47168,-68.969292 221.72396,-69.21506 222.01367,-69.377826 C 222.30664,-69.540581 222.64355,-69.621961 223.02441,-69.621966 C 223.65267,-69.621961 224.12793,-69.426648 224.4502,-69.036029 C 224.77246,-68.648654 224.93359,-68.077366 224.93359,-67.322162"
     transform="translate(105.73816,109.40534)"
     style="font-size:10px"
     id="flowRoot10948" />
</svg>
